<svg width="732" height="81" viewBox="0 0 732 81" fill="none" xmlns="http://www.w3.org/2000/svg">
<path d="M35.0579 39.2942C36.9194 36.0459 35.7788 31.9326 32.5103 30.1068C29.2418 28.281 25.0831 29.4342 23.2217 32.6825L1.37049 70.8126C-0.49101 74.0606 0.64959 78.1746 3.91808 79.9996C7.18658 81.8256 11.3453 80.6726 13.2067 77.4246L35.0579 39.2942Z" fill="white"/>
<path d="M82.1568 10.0578C84.0183 6.80955 82.8777 2.69625 79.6092 0.87045C76.3407 -0.95525 72.182 0.197949 70.3206 3.44615L48.4694 41.5762C46.6079 44.8244 47.7485 48.9378 51.017 50.7635C54.2855 52.5893 58.4442 51.4361 60.3056 48.1879L82.1568 10.0578Z" fill="white"/>
<path d="M154.63 10.0588C156.491 6.81054 155.351 2.69725 152.082 0.871448C148.814 -0.954252 144.655 0.198847 142.793 3.44715L120.942 41.5772C119.081 44.8254 120.221 48.9388 123.49 50.7645C126.758 52.5903 130.917 51.4372 132.778 48.1889L154.63 10.0588Z" fill="white"/>
<path d="M107.52 39.2942C109.381 36.0459 108.24 31.9326 104.972 30.1068C101.703 28.281 97.5449 29.4342 95.6834 32.6825L73.8322 70.8126C71.9707 74.0606 73.1113 78.1746 76.3798 79.9996C79.6483 81.8256 83.807 80.6726 85.6685 77.4246L107.52 39.2942Z" fill="white"/>
<path d="M212.006 76.2598H193.574C189.734 76.2598 186.758 73.1878 186.758 69.4438V10.5958C186.758 6.85176 189.734 3.77976 193.574 3.77976H212.006C229.766 3.77976 242.054 14.1478 242.054 35.9398V44.7718C242.054 66.5638 229.766 76.2598 212.006 76.2598ZM212.006 15.6838H200.39V64.2598H212.006C222.47 64.2598 228.326 59.5558 228.326 45.4438V35.2678C228.326 22.3078 222.374 15.6838 212.006 15.6838ZM252.608 71.1718V29.3158C252.608 25.6678 255.488 22.6918 259.136 22.6918C262.88 22.6918 265.76 25.6678 265.76 29.3158V32.4838C268.832 26.8198 273.44 22.8838 278.432 22.8838C282.56 22.8838 284.096 25.4758 284.096 29.2198C284.096 34.8838 280.832 35.6518 277.856 35.7478C271.04 35.8438 265.952 42.3718 265.76 52.2598V71.1718C265.76 74.8198 262.88 77.6998 259.136 77.6998C255.488 77.6998 252.608 74.8198 252.608 71.1718ZM290.742 71.1718V29.3158C290.742 25.6678 293.622 22.6918 297.27 22.6918C301.014 22.6918 303.894 25.6678 303.894 29.3158V71.1718C303.894 74.8198 301.014 77.6998 297.27 77.6998C293.622 77.6998 290.742 74.8198 290.742 71.1718ZM290.742 10.4038V6.85176C290.742 3.29976 293.718 0.515762 297.27 0.515762C300.918 0.515762 303.894 3.29976 303.894 6.85176V10.4038C303.894 14.1478 301.014 16.9318 297.27 16.9318C293.622 16.9318 290.742 14.1478 290.742 10.4038ZM312.77 71.0758C312.77 68.7718 314.018 66.8518 315.65 65.0278L340.994 34.4998H318.05C315.17 34.4998 312.866 32.1958 312.866 29.3158C312.866 26.4358 315.17 24.0358 318.05 24.0358H352.13C355.394 24.0358 357.602 26.4358 357.602 29.3158C357.602 31.5238 355.97 33.7318 354.722 35.2678L329.762 65.7958H352.226C355.106 65.7958 357.506 68.0998 357.506 70.9798C357.506 73.8598 355.106 76.2598 352.226 76.2598H318.146C314.594 76.2598 312.77 73.9558 312.77 71.0758ZM363.091 71.0758C363.091 68.7718 364.339 66.8518 365.971 65.0278L391.315 34.4998H368.371C365.491 34.4998 363.187 32.1958 363.187 29.3158C363.187 26.4358 365.491 24.0358 368.371 24.0358H402.451C405.715 24.0358 407.923 26.4358 407.923 29.3158C407.923 31.5238 406.291 33.7318 405.043 35.2678L380.083 65.7958H402.547C405.427 65.7958 407.827 68.0998 407.827 70.9798C407.827 73.8598 405.427 76.2598 402.547 76.2598H368.467C364.915 76.2598 363.091 73.9558 363.091 71.0758ZM416.58 62.3398V9.05976C416.58 5.41176 419.364 2.43576 423.108 2.43576C426.756 2.43576 429.732 5.41176 429.732 9.05976V58.7878C429.732 64.2598 430.884 66.5638 433.38 66.5638C433.956 66.5638 435.396 66.3718 435.876 66.3718C439.044 66.3718 441.252 68.4838 441.252 71.5558C441.252 74.3398 439.332 76.3558 436.644 77.0278C435.108 77.5078 433.38 77.6998 431.556 77.6998C421.476 77.6998 416.58 72.9958 416.58 62.3398ZM488.215 73.6678C484.471 76.0678 476.695 77.6998 470.455 77.6998C453.847 77.6998 444.919 69.0598 444.919 52.9318V47.0758C444.919 31.6198 454.519 22.6918 468.439 22.6918C482.263 22.6918 491.959 30.4678 492.151 46.2118V48.9958C492.055 52.4518 489.463 54.9478 486.007 54.9478H458.263C458.839 63.0118 463.831 66.9478 472.183 66.9478C476.407 66.9478 481.879 65.0278 485.239 64.0678C488.599 63.1078 491.191 64.9318 491.191 68.3878C491.191 71.0758 489.751 72.7078 488.215 73.6678ZM468.439 33.1558C461.911 33.1558 458.455 37.4758 458.263 45.9238H478.807V45.2518C478.615 36.8998 474.967 33.1558 468.439 33.1558ZM520.921 45.1558V35.5558C520.921 13.7638 532.921 2.43576 550.681 2.43576C568.441 2.43576 580.633 13.7638 580.633 35.5558V45.1558C580.633 66.9478 568.441 77.6998 550.681 77.6998C532.921 77.6998 520.921 66.9478 520.921 45.1558ZM534.649 34.8838V45.8278C534.649 58.5958 539.161 66.1798 550.681 66.1798C562.297 66.1798 566.905 58.5958 566.905 45.8278V34.8838C566.905 21.8278 562.009 13.9558 550.681 13.9558C539.929 13.9558 534.649 21.8278 534.649 34.8838ZM644.806 25.9558C644.806 34.6918 641.062 42.0838 633.574 45.9238L643.462 66.8518C643.942 68.0038 644.614 69.1558 644.614 70.5958C644.614 73.9558 641.926 77.4118 637.51 77.4118C634.438 77.4118 632.23 75.5878 631.174 72.9958L620.614 48.7078H606.406V70.5958C606.406 74.3398 603.334 77.4118 599.59 77.4118C595.75 77.4118 592.774 74.3398 592.774 70.5958V10.5958C592.774 6.85176 595.75 3.77976 599.59 3.77976H620.422C636.934 3.77976 644.806 13.3798 644.806 25.9558ZM616.678 15.2038H606.406V37.3798H617.734C627.622 37.3798 631.078 33.4438 631.078 26.2438C631.078 17.6038 626.278 15.2038 616.678 15.2038ZM663.697 2.43576C667.345 2.43576 669.841 3.97176 671.569 7.33176L690.001 43.4278L708.529 7.33176C710.161 3.97176 712.657 2.43576 716.305 2.43576C721.009 2.43576 723.313 5.98776 723.313 9.25176V70.5958C723.313 74.4358 720.529 77.4118 716.785 77.4118C712.945 77.4118 710.449 74.4358 710.449 70.5958V48.8038L710.545 27.8758L697.681 52.9318C695.569 57.0598 693.841 59.1718 689.713 59.1718C685.585 59.1718 683.953 57.2518 682.033 53.1238L669.361 28.6438L669.553 48.7078V70.5958C669.553 74.4358 666.769 77.4118 663.025 77.4118C659.185 77.4118 656.689 74.4358 656.689 70.5958V9.25176C656.689 5.89176 658.993 2.43576 663.697 2.43576Z" fill="white"/>
</svg>
