<svg width="1671" height="500" viewBox="0 0 1671 500" fill="none" xmlns="http://www.w3.org/2000/svg">
<g clip-path="url(#clip0_260_126)">
<path d="M281.255 299.587C308.979 299.587 331.455 277.112 331.455 249.388C331.455 221.663 308.979 199.188 281.255 199.188C253.53 199.188 231.055 221.663 231.055 249.388C231.055 277.112 253.53 299.587 281.255 299.587Z" fill="white"/>
<path d="M281.255 364.387C210.755 364.387 149.155 356.087 103.055 340.287C73.1549 330.087 47.7549 316.487 29.6549 300.987C10.4549 284.587 0.254883 266.687 0.254883 249.387C0.254883 216.187 36.6549 183.687 97.7549 162.487C147.755 145.087 212.955 135.387 281.155 135.387C348.155 135.387 412.455 144.787 462.155 161.987C491.255 171.987 515.755 184.987 533.155 199.387C552.055 215.187 562.055 232.487 562.055 249.387C562.055 283.887 521.355 318.787 455.755 340.487C409.355 355.887 347.355 364.387 281.255 364.387ZM281.255 159.387C216.555 159.387 152.555 168.787 105.755 185.087C49.5549 204.687 24.3549 231.487 24.3549 249.387C24.3549 267.987 51.4549 297.287 110.855 317.587C154.455 332.487 213.455 340.387 281.255 340.387C344.855 340.387 404.155 332.387 448.255 317.687C509.955 297.187 538.155 267.887 538.155 249.387C538.155 239.887 530.955 228.687 517.855 217.787C502.755 205.187 480.755 193.687 454.455 184.587C407.155 168.387 345.655 159.387 281.255 159.387Z" fill="white"/>
<path d="M167.355 499.588C157.155 499.588 148.155 497.388 140.555 492.988C111.855 476.388 101.855 428.588 113.955 365.088C123.855 312.988 148.055 251.788 182.155 192.688C215.655 134.688 255.855 83.6876 295.555 49.1876C318.755 28.9876 342.255 14.1876 363.455 6.38755C386.555 -2.11245 406.555 -2.11244 421.155 6.28756C451.055 23.4876 460.955 76.2876 446.955 143.888C437.055 191.888 413.455 249.788 380.455 307.088C345.255 368.088 307.255 417.288 270.555 449.388C246.755 470.188 222.255 485.388 199.855 493.288C188.155 497.488 177.155 499.588 167.355 499.588ZM192.455 198.688L202.855 204.688C170.555 260.688 146.655 320.788 137.455 369.588C126.355 428.088 137.055 463.288 152.455 472.188C156.255 474.388 161.255 475.588 167.355 475.588C187.255 475.588 218.555 462.988 254.755 431.388C289.455 401.088 325.755 353.888 359.655 295.188C391.455 240.088 414.055 184.688 423.455 139.188C436.555 75.4875 425.255 36.4876 409.155 27.1876C400.955 22.4876 387.655 23.0876 371.655 28.9876C353.155 35.7876 332.255 49.0876 311.255 67.3876C273.555 100.188 235.055 148.988 202.855 204.788L192.455 198.688Z" fill="white"/>
<path d="M395.155 499.887C367.955 499.887 333.455 483.487 297.455 452.487C257.255 417.887 216.355 366.387 182.155 307.287C148.555 249.287 124.555 188.987 114.455 137.287C108.555 107.087 107.455 79.3873 111.255 57.0873C115.455 32.7873 125.355 15.4873 140.055 6.98731C169.855 -10.3127 220.555 7.48731 272.155 53.3873C308.755 85.8873 347.155 135.287 380.255 192.487C415.555 253.487 439.255 310.987 448.655 358.787C454.755 389.787 455.755 418.587 451.455 441.987C446.855 466.887 436.455 484.587 421.455 493.287C413.955 497.687 405.055 499.887 395.155 499.887ZM202.955 295.287C235.355 351.287 275.555 401.987 313.155 434.287C358.255 473.087 394.055 481.487 409.555 472.487C425.655 463.187 437.455 425.087 425.255 363.487C416.255 318.287 393.555 263.287 359.555 204.587C327.655 149.487 290.955 102.187 256.255 71.3873C207.655 28.1873 168.255 18.4873 152.155 27.7873C143.955 32.4873 137.855 44.3873 134.955 61.1873C131.655 80.5873 132.655 105.387 138.055 132.687C147.655 181.787 170.655 239.487 202.955 295.287Z" fill="white"/>
<path d="M666.091 384.342V128.746H755.224C784.392 128.746 806.438 135.733 821.361 149.706C836.42 163.544 843.95 181.791 843.95 204.448C843.95 226.833 836.42 245.012 821.361 258.986C806.438 272.824 784.392 279.743 755.224 279.743H697.837V384.342H666.091ZM809.355 384.342L736.095 268.347H770.69L850.462 384.342H809.355ZM697.837 257.358H752.782C771.911 257.358 786.427 252.677 796.331 243.316C806.37 233.82 811.39 221.542 811.39 206.483C811.39 191.017 806.574 178.739 796.941 169.649C787.445 160.56 773.539 156.015 755.224 156.015H697.837V257.358ZM982.861 389.226C966.038 389.226 950.979 384.952 937.684 376.405C924.524 367.723 914.078 355.716 906.345 340.386C898.748 325.055 894.949 307.419 894.949 287.476C894.949 266.176 898.748 247.861 906.345 232.531C913.942 217.2 924.321 205.465 937.48 197.325C950.776 189.05 965.903 184.912 982.861 184.912C997.649 184.912 1010.27 187.896 1020.71 193.866C1031.16 199.835 1039.57 207.907 1045.95 218.082C1052.32 228.257 1056.73 239.789 1059.17 252.677C1061.75 265.43 1062.5 278.657 1061.41 292.36H920.59V272.824H1040.45L1031.09 278.929C1031.5 270.924 1031.02 262.92 1029.67 254.916C1028.44 246.911 1026.07 239.585 1022.54 232.938C1019.02 226.154 1014.06 220.728 1007.69 216.658C1001.31 212.588 993.172 210.553 983.268 210.553C970.787 210.553 960.34 213.741 951.929 220.117C943.518 226.494 937.209 234.905 933.003 245.351C928.798 255.662 926.695 266.854 926.695 278.929V291.953C926.695 305.519 928.73 317.662 932.8 328.379C937.006 339.097 943.246 347.576 951.522 353.817C959.798 360.057 970.244 363.178 982.861 363.178C995.478 363.178 1005.86 360.125 1014 354.02C1022.14 347.915 1027.09 338.893 1028.85 326.955H1061.82C1059.78 339.843 1055.17 350.968 1047.98 360.329C1040.79 369.554 1031.63 376.677 1020.51 381.696C1009.38 386.716 996.835 389.226 982.861 389.226ZM1244.84 384.342L1240.77 341.607V258.172C1240.77 240.671 1237.03 228.122 1229.57 220.524C1222.11 212.791 1210.92 208.925 1196 208.925C1187.58 208.925 1179.92 210.146 1173 212.588C1166.22 215.03 1160.79 218.828 1156.72 223.984C1152.79 229.003 1150.82 235.515 1150.82 243.52H1115.41C1115.41 229.41 1118.87 218.082 1125.79 209.535C1132.71 200.853 1142.2 194.612 1154.28 190.813C1166.49 186.879 1180.39 184.912 1196 184.912C1210.92 184.912 1224.15 187.422 1235.68 192.441C1247.21 197.461 1256.23 205.465 1262.74 216.454C1269.26 227.308 1272.51 241.485 1272.51 258.986V384.342H1244.84ZM1178.49 389.226C1162.49 389.226 1149.26 386.377 1138.81 380.679C1128.37 374.981 1120.56 367.587 1115.41 358.497C1110.25 349.408 1107.68 339.843 1107.68 329.804C1107.68 316.644 1110.93 305.926 1117.44 297.651C1124.09 289.375 1133.11 283.338 1144.51 279.539C1155.91 275.605 1168.73 273.638 1182.97 273.638C1193.15 273.638 1203.32 274.655 1213.5 276.69C1223.81 278.725 1233.85 281.506 1243.61 285.034V304.977C1235.47 301.721 1226.25 299.143 1215.94 297.244C1205.76 295.344 1196.4 294.395 1187.86 294.395C1174.83 294.395 1163.84 297.108 1154.89 302.535C1145.93 307.826 1141.46 316.915 1141.46 329.804C1141.46 339.3 1144.85 347.44 1151.63 354.224C1158.55 361.007 1169.54 364.399 1184.6 364.399C1195.18 364.399 1204.68 361.957 1213.09 357.073C1221.64 352.053 1228.35 345.812 1233.24 338.351C1238.26 330.889 1240.77 323.427 1240.77 315.966H1248.5C1248.5 328.99 1245.65 341.064 1239.95 352.189C1234.39 363.313 1226.38 372.267 1215.94 379.051C1205.49 385.834 1193.01 389.226 1178.49 389.226ZM1416.91 389.226C1401.31 389.226 1386.72 385.02 1373.15 376.609C1359.72 368.197 1348.87 356.327 1340.59 340.996C1332.32 325.666 1328.18 307.554 1328.18 286.662C1328.18 265.226 1332.32 246.911 1340.59 231.717C1348.87 216.522 1359.72 204.923 1373.15 196.918C1386.72 188.914 1401.31 184.912 1416.91 184.912C1427.9 184.912 1437.73 186.608 1446.41 189.999C1455.23 193.255 1462.9 197.8 1469.41 203.634C1475.92 209.467 1481.28 216.115 1485.49 223.577C1489.83 230.903 1493.02 238.636 1495.05 246.776L1462.49 249.625C1459.1 238.364 1453.4 229.478 1445.4 222.966C1437.53 216.319 1427.9 212.995 1416.5 212.995C1406.87 212.995 1397.78 215.776 1389.23 221.338C1380.82 226.765 1373.97 234.973 1368.68 245.962C1363.39 256.815 1360.74 270.382 1360.74 286.662C1360.74 301.721 1363.12 314.813 1367.86 325.937C1372.75 336.926 1379.4 345.473 1387.81 351.578C1396.22 357.683 1405.78 360.736 1416.5 360.736C1431.56 360.736 1442.96 357.073 1450.69 349.747C1458.56 342.285 1462.49 331.974 1462.49 318.815H1495.05C1495.05 332.381 1491.86 344.456 1485.49 355.038C1479.11 365.62 1470.02 373.963 1458.22 380.068C1446.55 386.173 1432.78 389.226 1416.91 389.226ZM1618.22 389.226C1607.64 389.226 1598.14 387.191 1589.73 383.121C1581.32 379.051 1574.67 372.946 1569.79 364.806C1564.9 356.666 1562.46 346.491 1562.46 334.281V135.665H1593.8V333.467C1593.8 353.545 1603.16 363.585 1621.88 363.585C1627.45 363.585 1632.8 362.974 1637.96 361.753C1643.25 360.532 1649.15 358.701 1655.66 356.259L1660.14 379.051C1653.22 382.035 1646.3 384.477 1639.38 386.377C1632.6 388.276 1625.55 389.226 1618.22 389.226ZM1531.12 211.774V189.796H1655.26V211.774H1531.12Z" fill="white"/>
</g>
<defs>
<clipPath id="clip0_260_126">
<rect width="1670.39" height="499.887" fill="white" transform="translate(0.254883)"/>
</clipPath>
</defs>
</svg>
