<svg width="581" height="113" viewBox="0 0 581 113" fill="none" xmlns="http://www.w3.org/2000/svg">
<g clip-path="url(#clip0_258_74)">
<path d="M151.397 66.761C151.996 72.3623 157.091 81.9644 171.877 81.9644C184.764 81.9644 190.959 73.7626 190.959 65.7609C190.959 58.5592 186.063 52.6579 176.373 50.6573L169.379 49.1571C166.682 48.657 164.884 47.1567 164.884 44.7561C164.884 41.9554 167.681 39.8551 171.178 39.8551C176.772 39.8551 178.87 43.5558 179.27 46.4566L190.359 43.956C189.76 38.6548 185.064 29.7529 171.078 29.7529C160.488 29.7529 152.696 37.0545 152.696 45.8563C152.696 52.7578 156.991 58.4593 166.482 60.5596L172.976 62.06C176.772 62.8601 178.271 64.6607 178.271 66.8611C178.271 69.4617 176.173 71.7622 171.777 71.7622C165.983 71.7622 163.085 68.1613 162.786 64.2604L151.397 66.761Z" fill="white"/>
<path d="M233.421 80.4639H246.109C245.909 78.7635 245.609 75.3628 245.609 71.5618V31.2529H232.321V59.8592C232.321 65.5606 228.925 69.5614 223.031 69.5614C216.837 69.5614 214.039 65.1604 214.039 59.6592V31.2529H200.752V62.3599C200.752 73.0622 207.545 81.7642 219.434 81.7642C224.628 81.7642 230.325 79.7638 233.022 75.1627C233.022 77.1631 233.221 79.4636 233.421 80.4639Z" fill="white"/>
<path d="M273.076 99.4677V75.6625C275.473 78.9631 280.469 81.6639 287.263 81.6639C301.149 81.6639 310.439 70.6612 310.439 55.7579C310.439 41.1548 302.148 30.1523 287.762 30.1523C280.37 30.1523 274.875 33.4529 272.677 37.2539V31.2525H259.79V99.4677H273.076ZM297.352 55.858C297.352 64.6601 291.958 69.7611 285.164 69.7611C278.372 69.7611 272.877 64.56 272.877 55.858C272.877 47.1561 278.372 42.0549 285.164 42.0549C291.958 42.0549 297.352 47.1561 297.352 55.858Z" fill="white"/>
<path d="M317.964 67.0611C317.964 74.7629 324.357 81.8645 334.848 81.8645C342.139 81.8645 346.835 78.4636 349.332 74.5627C349.332 76.4632 349.532 79.1637 349.832 80.4641H362.02C361.72 78.7637 361.422 75.2629 361.422 72.6624V48.4569C361.422 38.5547 355.627 29.7529 340.043 29.7529C326.855 29.7529 319.761 38.2546 318.963 45.9564L330.751 48.4569C331.151 44.156 334.348 40.4552 340.141 40.4552C345.737 40.4552 348.434 43.3558 348.434 46.8566C348.434 48.557 347.536 49.9574 344.738 50.3574L332.65 52.1578C324.458 53.3581 317.964 58.2591 317.964 67.0611ZM337.644 71.9622C333.349 71.9622 331.25 69.1616 331.25 66.261C331.25 62.4601 333.947 60.5596 337.345 60.0596L348.434 58.3592V60.5596C348.434 69.2617 343.239 71.9622 337.644 71.9622Z" fill="white"/>
<path d="M387.703 80.4641V74.4627C390.299 78.6637 395.494 81.6644 402.288 81.6644C416.276 81.6644 425.467 70.5618 425.467 55.6585C425.467 41.0552 417.174 29.9528 402.788 29.9528C395.494 29.9528 390.1 33.1535 387.902 36.6541V8.04785H374.815V80.4641H387.703ZM412.178 55.7584C412.178 64.7605 406.784 69.7616 399.99 69.7616C393.297 69.7616 387.703 64.6606 387.703 55.7584C387.703 46.7564 393.297 41.8554 399.99 41.8554C406.784 41.8554 412.178 46.7564 412.178 55.7584Z" fill="white"/>
<path d="M432.99 67.0611C432.99 74.7629 439.383 81.8645 449.873 81.8645C457.165 81.8645 461.862 78.4636 464.358 74.5627C464.358 76.4632 464.559 79.1637 464.858 80.4641H477.046C476.748 78.7637 476.448 75.2629 476.448 72.6624V48.4569C476.448 38.5547 470.653 29.7529 455.068 29.7529C441.881 29.7529 434.788 38.2546 433.989 45.9564L445.776 48.4569C446.177 44.156 449.374 40.4552 455.167 40.4552C460.763 40.4552 463.46 43.3558 463.46 46.8566C463.46 48.557 462.561 49.9574 459.763 50.3574L447.676 52.1578C439.484 53.3581 432.99 58.2591 432.99 67.0611ZM452.671 71.9622C448.375 71.9622 446.276 69.1616 446.276 66.261C446.276 62.4601 448.973 60.5596 452.371 60.0596L463.46 58.3592V60.5596C463.46 69.2617 458.265 71.9622 452.671 71.9622Z" fill="white"/>
<path d="M485.645 66.761C486.243 72.3623 491.339 81.9644 506.124 81.9644C519.012 81.9644 525.205 73.7626 525.205 65.7609C525.205 58.5592 520.311 52.6579 510.62 50.6573L503.626 49.1571C500.929 48.657 499.132 47.1567 499.132 44.7561C499.132 41.9554 501.928 39.8551 505.425 39.8551C511.021 39.8551 513.118 43.5558 513.519 46.4566L524.607 43.956C524.007 38.6548 519.312 29.7529 505.326 29.7529C494.735 29.7529 486.944 37.0545 486.944 45.8563C486.944 52.7578 491.238 58.4593 500.73 60.5596L507.224 62.06C511.021 62.8601 512.519 64.6607 512.519 66.8611C512.519 69.4617 510.421 71.7622 506.025 71.7622C500.23 71.7622 497.334 68.1613 497.034 64.2604L485.645 66.761Z" fill="white"/>
<path d="M545.385 50.2573C545.685 45.7564 549.482 40.5551 556.375 40.5551C563.967 40.5551 567.165 45.3563 567.365 50.2573H545.385ZM568.664 63.0603C567.065 67.4611 563.668 70.5619 557.474 70.5619C550.88 70.5619 545.385 65.8608 545.087 59.3595H580.252C580.252 59.1592 580.451 57.1589 580.451 55.2584C580.451 39.4549 571.361 29.7529 556.175 29.7529C543.588 29.7529 531.998 39.955 531.998 55.6586C531.998 72.2622 543.886 81.9644 557.374 81.9644C569.462 81.9644 577.255 74.8628 579.753 66.3609L568.664 63.0603Z" fill="white"/>
<path d="M63.7077 110.284C60.8482 113.885 55.0503 111.912 54.9814 107.314L53.9739 40.0625H99.1936C107.384 40.0625 111.952 49.5226 106.859 55.9372L63.7077 110.284Z" fill="url(#paint0_linear_258_74)"/>
<path d="M63.7077 110.284C60.8482 113.885 55.0503 111.912 54.9814 107.314L53.9739 40.0625H99.1936C107.384 40.0625 111.952 49.5226 106.859 55.9372L63.7077 110.284Z" fill="url(#paint1_linear_258_74)" fill-opacity="0.2"/>
<path d="M45.317 2.07079C48.1765 -1.53061 53.9745 0.442694 54.0434 5.04076L54.4849 72.292H9.83113C1.64038 72.292 -2.92775 62.8319 2.1655 56.4173L45.317 2.07079Z" fill="#EDEDED"/>
</g>
<defs>
<linearGradient id="paint0_linear_258_74" x1="53.9739" y1="54.9738" x2="94.1636" y2="71.8293" gradientUnits="userSpaceOnUse">
<stop stop-color="#D3D3D3" stop-opacity="0.43"/>
<stop offset="1" stop-color="#EDEDED"/>
</linearGradient>
<linearGradient id="paint1_linear_258_74" x1="36.1559" y1="30.5778" x2="54.4845" y2="65.0804" gradientUnits="userSpaceOnUse">
<stop/>
<stop offset="1" stop-opacity="0"/>
</linearGradient>
<clipPath id="clip0_258_74">
<rect width="581" height="113" fill="white"/>
</clipPath>
</defs>
</svg>
