<svg width="263" height="34" viewBox="0 0 263 34" fill="none" xmlns="http://www.w3.org/2000/svg">
<g clip-path="url(#clip0_260_127)">
<path fill-rule="evenodd" clip-rule="evenodd" d="M27.5239 0.900391C20.3239 0.900391 15.8239 4.50039 14.0239 11.7004C16.7239 8.10039 19.8739 6.75039 23.4739 7.65039C25.5279 8.16339 26.9959 9.65439 28.6209 11.3034C31.2679 13.9904 34.3319 17.1004 41.0239 17.1004C48.2239 17.1004 52.7239 13.5004 54.5239 6.30039C51.8239 9.90039 48.6739 11.2504 45.0739 10.3504C43.0199 9.83739 41.5519 8.34639 39.9269 6.69739C37.2799 4.01039 34.2159 0.900391 27.5239 0.900391ZM14.0239 17.1004C6.82393 17.1004 2.32393 20.7004 0.523926 27.9004C3.22393 24.3004 6.37393 22.9504 9.97393 23.8504C12.0279 24.3644 13.4959 25.8544 15.1209 27.5034C17.7679 30.1904 20.8319 33.3004 27.5239 33.3004C34.7239 33.3004 39.2239 29.7004 41.0239 22.5004C38.3239 26.1004 35.1739 27.4504 31.5739 26.5504C29.5199 26.0374 28.0519 24.5464 26.4269 22.8974C23.7799 20.2104 20.7159 17.1004 14.0239 17.1004Z" fill="white"/>
<path fill-rule="evenodd" clip-rule="evenodd" d="M81.52 14.5524H76.808V23.6724C76.808 26.1044 78.404 26.0664 81.52 25.9144V29.6004C75.212 30.3604 72.704 28.6124 72.704 23.6724V14.5524H69.208V10.6004H72.704V5.49635L76.808 4.28035V10.6004H81.52V14.5524ZM99.482 10.6004H103.586V29.6004H99.482V26.8644C98.038 28.8784 95.796 30.0944 92.832 30.0944C87.664 30.0944 83.37 25.7244 83.37 20.1004C83.37 14.4384 87.664 10.1064 92.832 10.1064C95.796 10.1064 98.038 11.3224 99.482 13.2984V10.6004ZM93.478 26.1804C96.898 26.1804 99.482 23.6344 99.482 20.1004C99.482 16.5664 96.898 14.0204 93.478 14.0204C90.058 14.0204 87.474 16.5664 87.474 20.1004C87.474 23.6344 90.058 26.1804 93.478 26.1804ZM110.426 7.75035C108.982 7.75035 107.804 6.53435 107.804 5.12835C107.805 4.43336 108.082 3.76721 108.573 3.27578C109.065 2.78434 109.731 2.50767 110.426 2.50635C111.121 2.50767 111.787 2.78434 112.279 3.27578C112.77 3.76721 113.047 4.43336 113.048 5.12835C113.048 6.53435 111.87 7.75035 110.426 7.75035ZM108.374 29.6004V10.6004H112.478V29.6004H108.374ZM117.228 29.6004V1.86035H121.332V29.6004H117.228ZM147.97 10.6004H152.302L146.336 29.6004H142.308L138.356 16.7944L134.366 29.6004H130.338L124.372 10.6004H128.704L132.39 23.7104L136.38 10.6004H140.294L144.246 23.7104L147.97 10.6004ZM157.394 7.75035C155.95 7.75035 154.772 6.53435 154.772 5.12835C154.773 4.43336 155.05 3.76721 155.541 3.27578C156.033 2.78434 156.699 2.50767 157.394 2.50635C158.089 2.50767 158.755 2.78434 159.247 3.27578C159.738 3.76721 160.015 4.43336 160.016 5.12835C160.016 6.53435 158.838 7.75035 157.394 7.75035ZM155.342 29.6004V10.6004H159.446V29.6004H155.342ZM174.19 10.1064C178.446 10.1064 181.486 12.9944 181.486 17.9344V29.6004H177.382V18.3524C177.382 15.4644 175.71 13.9444 173.126 13.9444C170.428 13.9444 168.3 15.5404 168.3 19.4164V29.6004H164.196V10.6004H168.3V13.0324C169.554 11.0564 171.606 10.1064 174.19 10.1064ZM200.942 3.00035H205.046V29.6004H200.942V26.8644C199.498 28.8784 197.256 30.0944 194.292 30.0944C189.124 30.0944 184.83 25.7244 184.83 20.1004C184.83 14.4384 189.124 10.1064 194.292 10.1064C197.256 10.1064 199.498 11.3224 200.942 13.2984V3.00035ZM194.938 26.1804C198.358 26.1804 200.942 23.6344 200.942 20.1004C200.942 16.5664 198.358 14.0204 194.938 14.0204C191.518 14.0204 188.934 16.5664 188.934 20.1004C188.934 23.6344 191.518 26.1804 194.938 26.1804ZM218.802 30.0944C213.064 30.0944 208.77 25.7244 208.77 20.1004C208.77 14.4384 213.064 10.1064 218.802 10.1064C222.526 10.1064 225.756 12.0444 227.276 15.0084L223.742 17.0604C222.906 15.2744 221.044 14.1344 218.764 14.1344C215.42 14.1344 212.874 16.6804 212.874 20.1004C212.874 23.5204 215.42 26.0664 218.764 26.0664C221.044 26.0664 222.906 24.8884 223.818 23.1404L227.352 25.1544C225.756 28.1564 222.526 30.0944 218.802 30.0944ZM234.116 15.8444C234.116 19.3024 244.338 17.2124 244.338 24.2424C244.338 28.0424 241.032 30.0944 236.928 30.0944C233.128 30.0944 230.392 28.3844 229.176 25.6484L232.71 23.5964C233.318 25.3064 234.838 26.3324 236.928 26.3324C238.752 26.3324 240.158 25.7244 240.158 24.2044C240.158 20.8224 229.936 22.7224 229.936 15.9204C229.936 12.3484 233.014 10.1064 236.89 10.1064C240.006 10.1064 242.59 11.5504 243.92 14.0584L240.462 15.9964C239.778 14.5144 238.448 13.8304 236.89 13.8304C235.408 13.8304 234.116 14.4764 234.116 15.8444ZM251.634 15.8444C251.634 19.3024 261.856 17.2124 261.856 24.2424C261.856 28.0424 258.55 30.0944 254.446 30.0944C250.646 30.0944 247.91 28.3844 246.694 25.6484L250.228 23.5964C250.836 25.3064 252.356 26.3324 254.446 26.3324C256.27 26.3324 257.676 25.7244 257.676 24.2044C257.676 20.8224 247.454 22.7224 247.454 15.9204C247.454 12.3484 250.532 10.1064 254.408 10.1064C257.524 10.1064 260.108 11.5504 261.438 14.0584L257.98 15.9964C257.296 14.5144 255.966 13.8304 254.408 13.8304C252.926 13.8304 251.634 14.4764 251.634 15.8444Z" fill="white"/>
</g>
<defs>
<clipPath id="clip0_260_127">
<rect width="262" height="33" fill="white" transform="translate(0.523926 0.900391)"/>
</clipPath>
</defs>
</svg>
