<svg width="55" height="34" viewBox="0 0 55 34" fill="none" xmlns="http://www.w3.org/2000/svg">
<g clip-path="url(#clip0_258_96)">
<mask id="mask0_258_96" style="mask-type:luminance" maskUnits="userSpaceOnUse" x="0" y="0" width="55" height="33">
<path d="M0.64502 0.5H54.645V32.9H0.64502V0.5Z" fill="white"/>
</mask>
<g mask="url(#mask0_258_96)">
<path fill-rule="evenodd" clip-rule="evenodd" d="M27.645 0.5C20.445 0.5 15.945 4.1 14.145 11.3C16.845 7.7 19.995 6.35 23.595 7.25C25.649 7.763 27.117 9.254 28.742 10.903C31.389 13.59 34.453 16.7 41.145 16.7C48.345 16.7 52.845 13.1 54.645 5.9C51.945 9.5 48.795 10.85 45.195 9.95C43.141 9.437 41.673 7.946 40.048 6.297C37.401 3.61 34.337 0.5 27.645 0.5ZM14.145 16.7C6.94502 16.7 2.44502 20.3 0.64502 27.5C3.34502 23.9 6.49502 22.55 10.095 23.45C12.149 23.964 13.617 25.454 15.242 27.103C17.889 29.79 20.953 32.9 27.645 32.9C34.845 32.9 39.345 29.3 41.145 22.1C38.445 25.7 35.295 27.05 31.695 26.15C29.641 25.637 28.173 24.146 26.548 22.497C23.901 19.81 20.837 16.7 14.145 16.7Z" fill="white"/>
</g>
</g>
<defs>
<clipPath id="clip0_258_96">
<rect width="54" height="33" fill="white" transform="translate(0.64502 0.5)"/>
</clipPath>
</defs>
</svg>
