<svg width="429" height="128" viewBox="0 0 429 128" fill="none" xmlns="http://www.w3.org/2000/svg">
<path fill-rule="evenodd" clip-rule="evenodd" d="M38.5 0H91.5C112.211 0 129 16.7893 129 37.5V90.5C129 111.211 112.211 128 91.5 128H38.5C17.7893 128 1 111.211 1 90.5V37.5C1 16.7893 17.7893 0 38.5 0ZM82.6307 29.002L64.8615 18.75L47.1155 29.002V34.909L47.1038 34.9095L26.0578 47.0595V68.4358L20.5135 71.6365V92.1345L38.2713 102.404L46.0445 97.9085L65.098 108.912L84.2662 97.8445L92.15 102.404L109.908 92.152V71.6365L104.138 68.306V47.0595L82.6307 34.639V29.002ZM82.6307 39.9698V49.5058L64.873 59.7578L47.1155 49.5058V40.234L47.1038 40.2345L30.673 49.725V65.771L38.2713 61.3845L56.0288 71.6365V92.1345L50.6565 95.2413L65.098 103.581L79.6545 95.178L74.3922 92.1345V71.6365L92.15 61.3845L99.523 65.6413V49.725L82.6307 39.9698ZM79.0077 89.4923V76.9788L89.8422 83.2328V95.7463L79.0077 89.4923ZM105.292 76.9615L94.4577 83.2155V95.7463L105.292 89.475V76.9615ZM25.1289 89.475V76.9615L35.9635 83.2155V95.7288L25.1289 89.475ZM51.4135 76.9615L40.5788 83.2155V95.7288L51.4135 89.475V76.9615ZM81.3155 72.9808L92.15 66.727L102.984 72.9808L92.15 79.2405L81.3155 72.9808ZM38.2713 66.7095L27.4365 72.9808L38.2713 79.223L49.1058 72.9808L38.2713 66.7095ZM51.7308 46.8405V34.327L62.5537 40.5865V53.0943L51.7308 46.8405ZM78.0038 34.327L67.1807 40.5865V53.0885L78.0038 46.8405V34.327ZM54.0385 30.3345L64.8615 24.0808L75.6962 30.3345L64.8615 36.5885L54.0385 30.3345Z" fill="white"/>
<path d="M192.551 42.5456V57.8865H151.259V42.5456H192.551ZM159.909 26.8637H180.747V87.4177C180.747 88.6961 180.946 89.7331 181.344 90.5285C181.77 91.2956 182.381 91.8495 183.176 92.1904C183.972 92.5029 184.923 92.6592 186.031 92.6592C186.827 92.6592 187.665 92.5882 188.545 92.4461C189.455 92.2757 190.136 92.1336 190.591 92.02L193.744 107.062C192.75 107.347 191.344 107.702 189.526 108.128C187.736 108.554 185.591 108.824 183.091 108.938C178.205 109.165 174.014 108.597 170.52 107.233C167.054 105.841 164.398 103.682 162.551 100.756C160.733 97.8296 159.852 94.1507 159.909 89.7189V26.8637ZM199.789 108V20.7274H235.841C242.375 20.7274 248.014 21.9063 252.758 24.2643C257.531 26.5938 261.21 29.9461 263.795 34.3211C266.38 38.6677 267.673 43.824 267.673 49.7899C267.673 55.841 266.352 60.9831 263.71 65.216C261.068 69.4206 257.318 72.6308 252.46 74.8467C247.602 77.0342 241.849 78.1279 235.201 78.1279H212.403V61.5086H231.281C234.463 61.5086 237.119 61.0967 239.25 60.2728C241.409 59.4206 243.042 58.1421 244.15 56.4376C245.258 54.7046 245.812 52.4887 245.812 49.7899C245.812 47.091 245.258 44.8609 244.15 43.0995C243.042 41.3098 241.409 39.9745 239.25 39.0939C237.091 38.1848 234.434 37.7302 231.281 37.7302H220.883V108H199.789ZM248.923 68.1137L270.656 108H247.645L226.338 68.1137H248.923ZM274.443 108V20.7274H310.494C317.028 20.7274 322.667 22.0058 327.411 24.5626C332.184 27.091 335.863 30.6279 338.448 35.1734C341.034 39.6904 342.326 44.9461 342.326 50.9404C342.326 56.9632 341.005 62.2331 338.363 66.7501C335.749 71.2387 332.014 74.7188 327.156 77.1904C322.298 79.662 316.531 80.8978 309.855 80.8978H287.61V64.2785H305.934C309.116 64.2785 311.772 63.7245 313.903 62.6166C316.062 61.5086 317.695 59.9603 318.803 57.9717C319.911 55.9546 320.465 53.6109 320.465 50.9404C320.465 48.2416 319.911 45.912 318.803 43.9518C317.695 41.9632 316.062 40.4291 313.903 39.3495C311.744 38.27 309.088 37.7302 305.934 37.7302H295.536V108H274.443ZM427.143 52.3467H405.836C405.552 50.1592 404.969 48.1848 404.089 46.4234C403.208 44.662 402.043 43.1563 400.594 41.9063C399.145 40.6564 397.427 39.7046 395.438 39.0512C393.478 38.3694 391.305 38.0285 388.918 38.0285C384.685 38.0285 381.035 39.0654 377.966 41.1393C374.927 43.2132 372.583 46.2103 370.935 50.1308C369.316 54.0512 368.506 58.7956 368.506 64.3637C368.506 70.1592 369.33 75.0171 370.978 78.9376C372.654 82.8296 374.998 85.77 378.009 87.7586C381.049 89.7188 384.643 90.699 388.79 90.699C391.12 90.699 393.236 90.4007 395.14 89.8041C397.072 89.2075 398.762 88.341 400.211 87.2046C401.688 86.0399 402.895 84.6336 403.833 82.9859C404.799 81.3098 405.466 79.4206 405.836 77.3183L427.143 77.4461C426.773 81.3098 425.651 85.1166 423.776 88.8666C421.93 92.6166 419.387 96.0399 416.148 99.1365C412.91 102.205 408.961 104.648 404.302 106.466C399.671 108.284 394.359 109.193 388.364 109.193C380.466 109.193 373.393 107.46 367.143 103.994C360.921 100.5 356.006 95.4149 352.398 88.7387C348.79 82.0626 346.986 73.9376 346.986 64.3637C346.986 54.7615 348.819 46.6223 352.484 39.9461C356.148 33.27 361.106 28.199 367.356 24.7331C373.606 21.2671 380.609 19.5342 388.364 19.5342C393.648 19.5342 398.535 20.2728 403.023 21.7501C407.512 23.199 411.461 25.3296 414.87 28.1421C418.279 30.9262 421.049 34.3495 423.18 38.412C425.31 42.4745 426.631 47.1194 427.143 52.3467Z" fill="white"/>
</svg>
